<?xml version="1.0" encoding="UTF-8" standalone="no"?>
<!-- Created with Inkscape (http://www.inkscape.org/) -->

<svg
   width="1920"
   height="1080"
   viewBox="0 0 1920 1080"
   version="1.1"
   id="svg5"
   inkscape:version="1.1.2 (0a00cf5339, 2022-02-04)"
   sodipodi:docname="desert_landscape.svg"
   xmlns:inkscape="http://www.inkscape.org/namespaces/inkscape"
   xmlns:sodipodi="http://sodipodi.sourceforge.net/DTD/sodipodi-0.dtd"
   xmlns="http://www.w3.org/2000/svg"
   xmlns:svg="http://www.w3.org/2000/svg">
  <sodipodi:namedview
     id="namedview7"
     pagecolor="#505050"
     bordercolor="#eeeeee"
     borderopacity="1"
     inkscape:pageshadow="0"
     inkscape:pageopacity="0"
     inkscape:pagecheckerboard="0"
     inkscape:document-units="px"
     showgrid="false"
     borderlayer="true"
     inkscape:showpageshadow="false"
     inkscape:zoom="0.5703125"
     inkscape:cx="881.02924"
     inkscape:cy="843.78577"
     inkscape:window-width="1920"
     inkscape:window-height="995"
     inkscape:window-x="0"
     inkscape:window-y="0"
     inkscape:window-maximized="1"
     inkscape:current-layer="layer1" />
  <defs
     id="defs2" />
  <g
     inkscape:groupmode="layer"
     id="layer4"
     inkscape:label="Céu">
    <rect
       style="fill:#ffc099;fill-opacity:1;stroke:none"
       id="rect44898"
       width="2113.1348"
       height="1234.6753"
       x="-130.48405"
       y="-83.605255" />
  </g>
  <g
     inkscape:groupmode="layer"
     id="layer5"
     inkscape:label="Sol">
    <ellipse
       style="fill:#ffffff;fill-opacity:1;stroke:none"
       id="path45909"
       cx="960"
       cy="376.17218"
       rx="293.08484"
       ry="270.31335" />
    <ellipse
       style="fill:#ffffff;fill-opacity:0.495775;stroke:none;stroke-width:1.19782"
       id="ellipse45991"
       cx="957.60284"
       cy="378.38309"
       rx="351.06317"
       ry="323.78702" />
    <ellipse
       style="fill:#ffffff;fill-opacity:0.17666683;stroke:none;stroke-width:1.3711;opacity:1"
       id="ellipse48648"
       cx="957.60284"
       cy="378.38309"
       rx="401.84796"
       ry="370.62604" />
  </g>
  <g
     inkscape:groupmode="layer"
     id="layer3"
     inkscape:label="Atrás">
    <path
       style="fill:#ff995a;fill-opacity:1;stroke:none;stroke-width:1px;stroke-linecap:butt;stroke-linejoin:miter;stroke-opacity:1"
       d="m -237.10338,628.93151 c 0,0 293.972371,-61.5955 442.70013,-57.19045 96.11679,2.84681 180.97661,93.46199 249.9254,89.25343 76.14073,-4.64755 258.3856,-162.67787 392.03842,-152.19012 129.7047,10.17794 375.36753,0.40855 507.94583,61.058 112.3502,51.39589 335.9894,-21.44013 393.14,-43.40518 78.3506,-30.11296 219.5777,-51.67311 360.8643,-32.76134 31.3516,4.19653 244.7269,287.15732 244.7269,287.15732 l 71.6061,673.42483 -682.9238,154.3474 -667.851,0.051 -869.73328,-98.6169 -669.06593,-95.2667 c 0,0 -542.99249,-269.4354 -493.74037,-273.3675 49.25214,-3.9322 438.37458,-300.80888 438.37458,-300.80888 z"
       id="path258"
       sodipodi:nodetypes="cssssssccccccscc" />
    <g
       id="g70829"
       transform="matrix(0.48656012,0,0,0.47155766,483.42518,205.54139)"
       style="display:inline;fill:#ff995a;fill-opacity:1">
      <rect
         style="opacity:1;fill:#ff995a;fill-opacity:1;stroke:none;stroke-width:0.942179"
         id="rect70821"
         width="52.508011"
         height="338.79025"
         x="106.48255"
         y="615.03784"
         ry="23.836504"
         rx="26.254005" />
      <path
         id="path70823"
         style="opacity:1;fill:#ff995a;fill-opacity:1;stroke-width:0.546037"
         d="m 70.159245,655.53129 c -5.843648,0 -10.268781,5.04895 -10.548101,11.30654 l -1.945968,43.59538 c -0.140025,3.13698 3.128067,7.60318 5.043439,9.64807 1.8859,2.08014 8.114031,3.27922 11.046197,3.31548 l 38.592708,0.62525 c 5.84326,0.0722 10.60226,-4.91174 10.66965,-11.17515 0.0674,-6.26341 -4.58329,-11.3646 -10.42655,-11.43684 0,0 -28.682013,6.82666 -32.278241,-0.12505 -2.756107,-5.32771 -0.68427,-33.60069 -0.68427,-33.60069 0,-6.26382 -3.625217,-12.15299 -9.468864,-12.15299 z"
         sodipodi:nodetypes="ssscccsssss" />
      <path
         id="path70825"
         style="opacity:1;fill:#ff995a;fill-opacity:1;stroke-width:0.697471"
         d="m 215.9496,645.91267 c -7.28771,0 -17.10231,6.43513 -17.10231,14.62999 0,0 -0.70932,78.64926 -6.70178,84.58246 -5.99247,5.93321 -67.88914,0.27684 -67.88914,0.27684 -7.2877,0 -13.1547,6.59731 -13.1547,14.79217 0,8.19486 5.87206,14.52054 13.1547,14.79216 l 88.22782,3.29061 c 7.28265,0.27162 13.72115,-9.88791 13.72115,-18.08277 v -99.8471 c 0,-8.19486 -2.96803,-14.43436 -10.25574,-14.43436 z"
         sodipodi:nodetypes="sszsssssss" />
      <path
         id="path70827"
         style="opacity:1;fill:#ff995a;fill-opacity:1;stroke-width:0.559681"
         d="m 26.568618,698.14717 c -6.201266,0 -11.19362,4.99236 -11.19362,11.19362 l -0.956686,83.87287 0.693401,9.90112 c 0.43323,6.18611 5.255639,6.9686 11.456905,6.9686 l 15.171112,0.24533 74.37785,-0.24533 c 6.20124,-0.0204 11.19362,-4.99235 11.19362,-11.19362 v -5.59681 c 0,-6.20127 -4.99235,-11.19362 -11.19362,-11.19362 0,0 -61.588581,7.50645 -72.758531,0 -10.987742,-7.384 0,-72.75854 0,-72.75854 0,-6.20126 -4.992355,-11.19362 -11.193621,-11.19362 z"
         sodipodi:nodetypes="sscsscssssssss" />
    </g>
    <g
       id="g76636"
       transform="matrix(0.43728521,0,0,0.48314173,1467.4237,147.07925)"
       style="display:inline;fill:#ff995a;fill-opacity:1">
      <rect
         style="opacity:1;fill:#ff995a;fill-opacity:1;stroke:none;stroke-width:0.942179"
         id="rect76628"
         width="52.508011"
         height="338.79025"
         x="106.48255"
         y="615.03784"
         ry="23.836504"
         rx="26.254005" />
      <path
         id="path76630"
         style="opacity:1;fill:#ff995a;fill-opacity:1;stroke-width:0.546037"
         d="m 70.159245,655.53129 c -5.843648,0 -10.268781,5.04895 -10.548101,11.30654 l -1.945968,43.59538 c -0.140025,3.13698 3.128067,7.60318 5.043439,9.64807 1.8859,2.08014 8.114031,3.27922 11.046197,3.31548 l 38.592708,0.62525 c 5.84326,0.0722 10.60226,-4.91174 10.66965,-11.17515 0.0674,-6.26341 -4.58329,-11.3646 -10.42655,-11.43684 0,0 -28.682013,6.82666 -32.278241,-0.12505 -2.756107,-5.32771 -0.68427,-33.60069 -0.68427,-33.60069 0,-6.26382 -3.625217,-12.15299 -9.468864,-12.15299 z"
         sodipodi:nodetypes="ssscccsssss" />
      <path
         id="path76632"
         style="opacity:1;fill:#ff995a;fill-opacity:1;stroke-width:0.697471"
         d="m 215.9496,645.91267 c -7.28771,0 -17.10231,6.43513 -17.10231,14.62999 0,0 -0.70932,78.64926 -6.70178,84.58246 -5.99247,5.93321 -67.88914,0.27684 -67.88914,0.27684 -7.2877,0 -13.1547,6.59731 -13.1547,14.79217 0,8.19486 5.87206,14.52054 13.1547,14.79216 l 88.22782,3.29061 c 7.28265,0.27162 13.72115,-9.88791 13.72115,-18.08277 v -99.8471 c 0,-8.19486 -2.96803,-14.43436 -10.25574,-14.43436 z"
         sodipodi:nodetypes="sszsssssss" />
      <path
         id="path76634"
         style="opacity:1;fill:#ff995a;fill-opacity:1;stroke-width:0.559681"
         d="m 26.568618,698.14717 c -6.201266,0 -11.19362,4.99236 -11.19362,11.19362 l -0.956686,83.87287 0.693401,9.90112 c 0.43323,6.18611 5.255639,6.9686 11.456905,6.9686 l 15.171112,0.24533 74.37785,-0.24533 c 6.20124,-0.0204 11.19362,-4.99235 11.19362,-11.19362 v -5.59681 c 0,-6.20127 -4.99235,-11.19362 -11.19362,-11.19362 0,0 -61.588581,7.50645 -72.758531,0 -10.987742,-7.384 0,-72.75854 0,-72.75854 0,-6.20126 -4.992355,-11.19362 -11.193621,-11.19362 z"
         sodipodi:nodetypes="sscsscssssssss" />
    </g>
  </g>
  <g
     inkscape:groupmode="layer"
     id="layer2"
     inkscape:label="Meio">
    <path
       style="fill:#ff8c42;fill-opacity:1;stroke:none;stroke-width:1px;stroke-linecap:butt;stroke-linejoin:miter;stroke-opacity:1"
       d="m -265.12634,737.58038 c 0,0 333.302444,-80.57254 421.29136,-48.7355 86.71093,31.37463 244.26092,101.46505 368.78168,84.94815 124.52076,-16.51691 291.74572,-171.7804 454.31398,-174.49508 156.82002,-2.61869 306.84412,158.9806 473.45642,160.28467 156.55,1.22531 232.131,-164.33101 447.1656,-143.62264 45.9617,4.42623 326.0343,171.48994 326.0343,171.48994 L 2264.1781,1395.51 1525.5022,1518.5576 661.154,1414.9029 -43.460998,1390.6744 -701.15064,1259.0465 Z"
       id="path222"
       sodipodi:nodetypes="csssasccccccc" />
    <g
       id="g53548"
       transform="matrix(0.43079986,0,0,0.4175167,1724.8971,242.80855)"
       style="display:inline;fill:#ff8c42;fill-opacity:1">
      <rect
         style="opacity:1;fill:#ff8c42;fill-opacity:1;stroke:none;stroke-width:0.942179"
         id="rect53540"
         width="52.508011"
         height="338.79025"
         x="106.48255"
         y="615.03784"
         ry="23.836504"
         rx="26.254005" />
      <path
         id="path53542"
         style="opacity:1;fill:#ff8c42;fill-opacity:1;stroke-width:0.546037"
         d="m 70.159245,655.53129 c -5.843648,0 -10.268781,5.04895 -10.548101,11.30654 l -1.945968,43.59538 c -0.140025,3.13698 3.128067,7.60318 5.043439,9.64807 1.8859,2.08014 8.114031,3.27922 11.046197,3.31548 l 38.592708,0.62525 c 5.84326,0.0722 10.60226,-4.91174 10.66965,-11.17515 0.0674,-6.26341 -4.58329,-11.3646 -10.42655,-11.43684 0,0 -28.682013,6.82666 -32.278241,-0.12505 -2.756107,-5.32771 -0.68427,-33.60069 -0.68427,-33.60069 0,-6.26382 -3.625217,-12.15299 -9.468864,-12.15299 z"
         sodipodi:nodetypes="ssscccsssss" />
      <path
         id="path53544"
         style="opacity:1;fill:#ff8c42;fill-opacity:1;stroke-width:0.697471"
         d="m 215.9496,645.91267 c -7.28771,0 -17.10231,6.43513 -17.10231,14.62999 0,0 -0.70932,78.64926 -6.70178,84.58246 -5.99247,5.93321 -67.88914,0.27684 -67.88914,0.27684 -7.2877,0 -13.1547,6.59731 -13.1547,14.79217 0,8.19486 5.87206,14.52054 13.1547,14.79216 l 88.22782,3.29061 c 7.28265,0.27162 13.72115,-9.88791 13.72115,-18.08277 v -99.8471 c 0,-8.19486 -2.96803,-14.43436 -10.25574,-14.43436 z"
         sodipodi:nodetypes="sszsssssss" />
      <path
         id="path53546"
         style="opacity:1;fill:#ff8c42;fill-opacity:1;stroke-width:0.559681"
         d="m 26.568618,698.14717 c -6.201266,0 -11.19362,4.99236 -11.19362,11.19362 l -0.956686,83.87287 0.693401,9.90112 c 0.43323,6.18611 5.255639,6.9686 11.456905,6.9686 l 15.171112,0.24533 74.37785,-0.24533 c 6.20124,-0.0204 11.19362,-4.99235 11.19362,-11.19362 v -5.59681 c 0,-6.20127 -4.99235,-11.19362 -11.19362,-11.19362 0,0 -61.588581,7.50645 -72.758531,0 -10.987742,-7.384 0,-72.75854 0,-72.75854 0,-6.20126 -4.992355,-11.19362 -11.193621,-11.19362 z"
         sodipodi:nodetypes="sscsscssssssss" />
    </g>
    <g
       id="g70279"
       transform="matrix(0.48656012,0,0,0.47155766,891.04671,174.90263)"
       style="display:inline;fill:#ff8c42;fill-opacity:1">
      <rect
         style="opacity:1;fill:#ff8c42;fill-opacity:1;stroke:none;stroke-width:0.942179"
         id="rect70271"
         width="52.508011"
         height="338.79025"
         x="106.48255"
         y="615.03784"
         ry="23.836504"
         rx="26.254005" />
      <path
         id="path70273"
         style="opacity:1;fill:#ff8c42;fill-opacity:1;stroke-width:0.546037"
         d="m 70.159245,655.53129 c -5.843648,0 -10.268781,5.04895 -10.548101,11.30654 l -1.945968,43.59538 c -0.140025,3.13698 3.128067,7.60318 5.043439,9.64807 1.8859,2.08014 8.114031,3.27922 11.046197,3.31548 l 38.592708,0.62525 c 5.84326,0.0722 10.60226,-4.91174 10.66965,-11.17515 0.0674,-6.26341 -4.58329,-11.3646 -10.42655,-11.43684 0,0 -28.682013,6.82666 -32.278241,-0.12505 -2.756107,-5.32771 -0.68427,-33.60069 -0.68427,-33.60069 0,-6.26382 -3.625217,-12.15299 -9.468864,-12.15299 z"
         sodipodi:nodetypes="ssscccsssss" />
      <path
         id="path70275"
         style="opacity:1;fill:#ff8c42;fill-opacity:1;stroke-width:0.697471"
         d="m 215.9496,645.91267 c -7.28771,0 -17.10231,6.43513 -17.10231,14.62999 0,0 -0.70932,78.64926 -6.70178,84.58246 -5.99247,5.93321 -67.88914,0.27684 -67.88914,0.27684 -7.2877,0 -13.1547,6.59731 -13.1547,14.79217 0,8.19486 5.87206,14.52054 13.1547,14.79216 l 88.22782,3.29061 c 7.28265,0.27162 13.72115,-9.88791 13.72115,-18.08277 v -99.8471 c 0,-8.19486 -2.96803,-14.43436 -10.25574,-14.43436 z"
         sodipodi:nodetypes="sszsssssss" />
      <path
         id="path70277"
         style="opacity:1;fill:#ff8c42;fill-opacity:1;stroke-width:0.559681"
         d="m 26.568618,698.14717 c -6.201266,0 -11.19362,4.99236 -11.19362,11.19362 l -0.956686,83.87287 0.693401,9.90112 c 0.43323,6.18611 5.255639,6.9686 11.456905,6.9686 l 15.171112,0.24533 74.37785,-0.24533 c 6.20124,-0.0204 11.19362,-4.99235 11.19362,-11.19362 v -5.59681 c 0,-6.20127 -4.99235,-11.19362 -11.19362,-11.19362 0,0 -61.588581,7.50645 -72.758531,0 -10.987742,-7.384 0,-72.75854 0,-72.75854 0,-6.20126 -4.992355,-11.19362 -11.193621,-11.19362 z"
         sodipodi:nodetypes="sscsscssssssss" />
    </g>
    <g
       id="g70289"
       transform="matrix(-0.36786948,0,0,0.36438567,1136.2772,294.74433)"
       style="display:inline;fill:#ff8c42;fill-opacity:1">
      <rect
         style="opacity:1;fill:#ff8c42;fill-opacity:1;stroke:none;stroke-width:0.942179"
         id="rect70281"
         width="52.508011"
         height="338.79025"
         x="106.48255"
         y="615.03784"
         ry="23.836504"
         rx="26.254005" />
      <path
         id="path70283"
         style="opacity:1;fill:#ff8c42;fill-opacity:1;stroke-width:0.546037"
         d="m 70.159245,655.53129 c -5.843648,0 -10.268781,5.04895 -10.548101,11.30654 l -1.945968,43.59538 c -0.140025,3.13698 3.128067,7.60318 5.043439,9.64807 1.8859,2.08014 8.114031,3.27922 11.046197,3.31548 l 38.592708,0.62525 c 5.84326,0.0722 10.60226,-4.91174 10.66965,-11.17515 0.0674,-6.26341 -4.58329,-11.3646 -10.42655,-11.43684 0,0 -28.682013,6.82666 -32.278241,-0.12505 -2.756107,-5.32771 -0.68427,-33.60069 -0.68427,-33.60069 0,-6.26382 -3.625217,-12.15299 -9.468864,-12.15299 z"
         sodipodi:nodetypes="ssscccsssss" />
      <path
         id="path70285"
         style="opacity:1;fill:#ff8c42;fill-opacity:1;stroke-width:0.697471"
         d="m 215.9496,645.91267 c -7.28771,0 -17.10231,6.43513 -17.10231,14.62999 0,0 -0.70932,78.64926 -6.70178,84.58246 -5.99247,5.93321 -67.88914,0.27684 -67.88914,0.27684 -7.2877,0 -13.1547,6.59731 -13.1547,14.79217 0,8.19486 5.87206,14.52054 13.1547,14.79216 l 88.22782,3.29061 c 7.28265,0.27162 13.72115,-9.88791 13.72115,-18.08277 v -99.8471 c 0,-8.19486 -2.96803,-14.43436 -10.25574,-14.43436 z"
         sodipodi:nodetypes="sszsssssss" />
      <path
         id="path70287"
         style="opacity:1;fill:#ff8c42;fill-opacity:1;stroke-width:0.559681"
         d="m 26.568618,698.14717 c -6.201266,0 -11.19362,4.99236 -11.19362,11.19362 l -0.956686,83.87287 0.693401,9.90112 c 0.43323,6.18611 5.255639,6.9686 11.456905,6.9686 l 15.171112,0.24533 74.37785,-0.24533 c 6.20124,-0.0204 11.19362,-4.99235 11.19362,-11.19362 v -5.59681 c 0,-6.20127 -4.99235,-11.19362 -11.19362,-11.19362 0,0 -61.588581,7.50645 -72.758531,0 -10.987742,-7.384 0,-72.75854 0,-72.75854 0,-6.20126 -4.992355,-11.19362 -11.193621,-11.19362 z"
         sodipodi:nodetypes="sscsscssssssss" />
    </g>
  </g>
  <g
     inkscape:label="Frente"
     inkscape:groupmode="layer"
     id="layer1"
     style="display:inline">
    <g
       id="g36"
       transform="matrix(1.8676588,0,0,3.0169385,453.67567,-966.50823)">
      <rect
         fill="#c45f2a"
         x="0"
         y="0"
         width="100"
         height="220"
         id="rect9" />
      <rect
         fill="#6699cc"
         x="100"
         y="0"
         width="100"
         height="220"
         id="rect11" />
      <rect
         fill="#fff275"
         x="200"
         y="0"
         width="100"
         height="220"
         id="rect13" />
      <rect
         fill="#ff8c42"
         x="300"
         y="0"
         width="100"
         height="220"
         id="rect15" />
      <rect
         fill="#ff3c33"
         x="400"
         y="0"
         width="100"
         height="220"
         id="rect17" />
      <text
         x="10"
         y="235"
         font-family="Arial"
         font-size="6px"
         alignment-baseline="middle"
         id="text19">Exported from Coolors.co</text>
      <text
         x="490"
         y="235"
         font-family="Arial"
         font-size="6px"
         alignment-baseline="middle"
         text-anchor="end"
         id="text21">https://coolors.co/c45f2a-6699cc-fff275-ff8c42-ff3c33</text>
    </g>
    <path
       style="fill:#c45f2a;fill-opacity:1;stroke:none;stroke-width:1px;stroke-linecap:butt;stroke-linejoin:miter;stroke-opacity:1"
       d="m -182.97159,851.0626 c 0,0 247.620015,-57.32456 373.65545,-57.86739 182.30843,-0.7852 359.02457,86.3539 541.18814,79.04559 150.29005,-6.02956 289.4686,-97.15637 439.836,-100.77398 148.1882,-3.56518 290.0331,65.85026 437.7359,78.35381 161.7145,13.68969 342.8737,-59.28874 486.8622,-4.00107 143.9884,55.28767 -237.2102,442.76944 -237.2102,442.76944 L 478.56057,1359.7705 -567.14212,1250.7956 Z"
       id="path186"
       sodipodi:nodetypes="caaaascccc" />
    <g
       id="g53528"
       transform="translate(-2.3260741,-130.13662)"
       style="fill:#c45f2a;fill-opacity:1">
      <rect
         style="opacity:1;fill:#c45f2a;fill-opacity:1;stroke:none;stroke-width:0.942179"
         id="rect50897"
         width="52.508011"
         height="338.79025"
         x="106.48255"
         y="615.03784"
         ry="23.836504"
         rx="26.254005" />
      <path
         id="rect51473"
         style="opacity:1;fill:#c45f2a;fill-opacity:1;stroke-width:0.546037"
         d="m 70.159245,655.53129 c -5.843648,0 -10.268781,5.04895 -10.548101,11.30654 l -1.945968,43.59538 c -0.140025,3.13698 3.128067,7.60318 5.043439,9.64807 1.8859,2.08014 8.114031,3.27922 11.046197,3.31548 l 38.592708,0.62525 c 5.84326,0.0722 10.60226,-4.91174 10.66965,-11.17515 0.0674,-6.26341 -4.58329,-11.3646 -10.42655,-11.43684 0,0 -28.682013,6.82666 -32.278241,-0.12505 -2.756107,-5.32771 -0.68427,-33.60069 -0.68427,-33.60069 0,-6.26382 -3.625217,-12.15299 -9.468864,-12.15299 z"
         sodipodi:nodetypes="ssscccsssss" />
      <path
         id="rect52041"
         style="opacity:1;fill:#c45f2a;fill-opacity:1;stroke-width:0.697471"
         d="m 215.9496,645.91267 c -7.28771,0 -17.10231,6.43513 -17.10231,14.62999 0,0 -0.70932,78.64926 -6.70178,84.58246 -5.99247,5.93321 -67.88914,0.27684 -67.88914,0.27684 -7.2877,0 -13.1547,6.59731 -13.1547,14.79217 0,8.19486 5.87206,14.52054 13.1547,14.79216 l 88.22782,3.29061 c 7.28265,0.27162 13.72115,-9.88791 13.72115,-18.08277 v -99.8471 c 0,-8.19486 -2.96803,-14.43436 -10.25574,-14.43436 z"
         sodipodi:nodetypes="sszsssssss" />
      <path
         id="rect52864"
         style="opacity:1;fill:#c45f2a;fill-opacity:1;stroke-width:0.559681"
         d="m 26.568618,698.14717 c -6.201266,0 -11.19362,4.99236 -11.19362,11.19362 l -0.956686,83.87287 0.693401,9.90112 c 0.43323,6.18611 5.255639,6.9686 11.456905,6.9686 l 15.171112,0.24533 74.37785,-0.24533 c 6.20124,-0.0204 11.19362,-4.99235 11.19362,-11.19362 v -5.59681 c 0,-6.20127 -4.99235,-11.19362 -11.19362,-11.19362 0,0 -61.588581,7.50645 -72.758531,0 -10.987742,-7.384 0,-72.75854 0,-72.75854 0,-6.20126 -4.992355,-11.19362 -11.193621,-11.19362 z"
         sodipodi:nodetypes="sscsscssssssss" />
    </g>
    <g
       id="g53538"
       transform="matrix(0.76865614,0,0,0.74495563,1148.9291,117.23427)"
       style="fill:#c45f2a;fill-opacity:1">
      <rect
         style="opacity:1;fill:#c45f2a;fill-opacity:1;stroke:none;stroke-width:0.942179"
         id="rect53530"
         width="52.508011"
         height="338.79025"
         x="106.48255"
         y="615.03784"
         ry="23.836504"
         rx="26.254005" />
      <path
         id="path53532"
         style="opacity:1;fill:#c45f2a;fill-opacity:1;stroke-width:0.546037"
         d="m 70.159245,655.53129 c -5.843648,0 -10.268781,5.04895 -10.548101,11.30654 l -1.945968,43.59538 c -0.140025,3.13698 3.128067,7.60318 5.043439,9.64807 1.8859,2.08014 8.114031,3.27922 11.046197,3.31548 l 38.592708,0.62525 c 5.84326,0.0722 10.60226,-4.91174 10.66965,-11.17515 0.0674,-6.26341 -4.58329,-11.3646 -10.42655,-11.43684 0,0 -28.682013,6.82666 -32.278241,-0.12505 -2.756107,-5.32771 -0.68427,-33.60069 -0.68427,-33.60069 0,-6.26382 -3.625217,-12.15299 -9.468864,-12.15299 z"
         sodipodi:nodetypes="ssscccsssss" />
      <path
         id="path53534"
         style="opacity:1;fill:#c45f2a;fill-opacity:1;stroke-width:0.697471"
         d="m 215.9496,645.91267 c -7.28771,0 -17.10231,6.43513 -17.10231,14.62999 0,0 -0.70932,78.64926 -6.70178,84.58246 -5.99247,5.93321 -67.88914,0.27684 -67.88914,0.27684 -7.2877,0 -13.1547,6.59731 -13.1547,14.79217 0,8.19486 5.87206,14.52054 13.1547,14.79216 l 88.22782,3.29061 c 7.28265,0.27162 13.72115,-9.88791 13.72115,-18.08277 v -99.8471 c 0,-8.19486 -2.96803,-14.43436 -10.25574,-14.43436 z"
         sodipodi:nodetypes="sszsssssss" />
      <path
         id="path53536"
         style="opacity:1;fill:#c45f2a;fill-opacity:1;stroke-width:0.559681"
         d="m 26.568618,698.14717 c -6.201266,0 -11.19362,4.99236 -11.19362,11.19362 l -0.956686,83.87287 0.693401,9.90112 c 0.43323,6.18611 5.255639,6.9686 11.456905,6.9686 l 15.171112,0.24533 74.37785,-0.24533 c 6.20124,-0.0204 11.19362,-4.99235 11.19362,-11.19362 v -5.59681 c 0,-6.20127 -4.99235,-11.19362 -11.19362,-11.19362 0,0 -61.588581,7.50645 -72.758531,0 -10.987742,-7.384 0,-72.75854 0,-72.75854 0,-6.20126 -4.992355,-11.19362 -11.193621,-11.19362 z"
         sodipodi:nodetypes="sscsscssssssss" />
    </g>
  </g>
</svg>
