<?xml version="1.0" encoding="UTF-8" standalone="no"?>
<!-- Created with Inkscape (http://www.inkscape.org/) -->

<svg
   width="1920"
   height="1080"
   viewBox="0 0 1920 1080"
   version="1.1"
   id="svg5"
   inkscape:version="1.1.2 (0a00cf5339, 2022-02-04)"
   sodipodi:docname="desert_landscape_night.svg"
   xmlns:inkscape="http://www.inkscape.org/namespaces/inkscape"
   xmlns:sodipodi="http://sodipodi.sourceforge.net/DTD/sodipodi-0.dtd"
   xmlns:xlink="http://www.w3.org/1999/xlink"
   xmlns="http://www.w3.org/2000/svg"
   xmlns:svg="http://www.w3.org/2000/svg">
  <sodipodi:namedview
     id="namedview7"
     pagecolor="#505050"
     bordercolor="#eeeeee"
     borderopacity="1"
     inkscape:pageshadow="0"
     inkscape:pageopacity="0"
     inkscape:pagecheckerboard="0"
     inkscape:document-units="px"
     showgrid="false"
     borderlayer="true"
     inkscape:showpageshadow="false"
     inkscape:zoom="0.5703125"
     inkscape:cx="881.09589"
     inkscape:cy="563.72603"
     inkscape:window-width="1920"
     inkscape:window-height="1039"
     inkscape:window-x="0"
     inkscape:window-y="0"
     inkscape:window-maximized="1"
     inkscape:current-layer="layer5" />
  <defs
     id="defs2" />
  <g
     inkscape:groupmode="layer"
     id="layer4"
     inkscape:label="Céu">
    <rect
       style="fill:#0c0d10;fill-opacity:1;stroke:none"
       id="rect44898"
       width="2113.1348"
       height="1234.6753"
       x="-130.48405"
       y="-83.605255" />
  </g>
  <g
     inkscape:groupmode="layer"
     id="layer5"
     inkscape:label="Sol">
    <ellipse
       style="fill:#ffffff;fill-opacity:1;stroke:none;stroke-width:0.509422"
       id="path45909"
       cx="280.46579"
       cy="156.05118"
       rx="149.3038"
       ry="137.70351" />
    <path
       sodipodi:type="star"
       style="opacity:0.675482;fill:#ffffff;fill-opacity:1"
       id="path16834"
       inkscape:flatsided="false"
       sodipodi:sides="5"
       sodipodi:cx="605.8418"
       sodipodi:cy="172.72086"
       sodipodi:r1="7.9625583"
       sodipodi:r2="3.9812789"
       sodipodi:arg1="0.61963556"
       sodipodi:arg2="1.2479541"
       inkscape:rounded="0"
       inkscape:randomized="0"
       d="m 612.32404,177.34502 -5.21913,-0.84857 -3.65783,3.81833 -0.80576,-5.22591 -4.76178,-2.29888 4.72114,-2.38122 0.71489,-5.23911 3.72359,3.75423 5.2036,-0.93907 -2.41983,4.70147 z"
       inkscape:transform-center-x="0.74003593"
       inkscape:transform-center-y="0.021374574" />
    <use
       id="use19651"
       inkscape:spray-origin="#path16834"
       xlink:href="#path16834"
       transform="matrix(1.368767,0.07476989,-0.07476989,1.368767,273.60396,-99.451041)"
       x="0"
       y="0"
       width="100%"
       height="100%" />
    <use
       id="use19653"
       inkscape:spray-origin="#path16834"
       xlink:href="#path16834"
       transform="matrix(1.0322098,5.3657031e-4,-5.3657031e-4,1.0322098,714.2924,-3.0391313)"
       x="0"
       y="0"
       width="100%"
       height="100%" />
    <use
       id="use19655"
       inkscape:spray-origin="#path16834"
       xlink:href="#path16834"
       transform="matrix(0.76333309,0.01042881,-0.01042881,0.76333309,1021.6697,245.02647)"
       x="0"
       y="0"
       width="100%"
       height="100%" />
    <use
       id="use19657"
       inkscape:spray-origin="#path16834"
       xlink:href="#path16834"
       transform="matrix(0.83541133,0.15602211,-0.15602211,0.83541133,1024.682,102.21442)"
       x="0"
       y="0"
       width="100%"
       height="100%" />
    <use
       id="use19659"
       inkscape:spray-origin="#path16834"
       xlink:href="#path16834"
       transform="matrix(0.6630554,0.08622563,-0.08622563,0.6630554,908.75246,159.29468)"
       x="0"
       y="0"
       width="100%"
       height="100%" />
    <use
       id="use19661"
       inkscape:spray-origin="#path16834"
       xlink:href="#path16834"
       transform="matrix(0.78373818,-0.18256371,0.18256371,0.78373818,705.86625,470.41309)"
       x="0"
       y="0"
       width="100%"
       height="100%" />
    <use
       id="use19663"
       inkscape:spray-origin="#path16834"
       xlink:href="#path16834"
       transform="matrix(1.0329615,0.11753033,-0.11753033,1.0329615,637.14497,131.9782)"
       x="0"
       y="0"
       width="100%"
       height="100%" />
    <use
       id="use19665"
       inkscape:spray-origin="#path16834"
       xlink:href="#path16834"
       transform="matrix(0.50261152,-0.08881314,0.08881314,0.50261152,684.81757,428.07758)"
       x="0"
       y="0"
       width="100%"
       height="100%" />
    <use
       id="use19667"
       inkscape:spray-origin="#path16834"
       xlink:href="#path16834"
       transform="matrix(1.3289446,-0.16115313,0.16115313,1.3289446,42.059762,159.59297)"
       x="0"
       y="0"
       width="100%"
       height="100%" />
    <use
       id="use19669"
       inkscape:spray-origin="#path16834"
       xlink:href="#path16834"
       transform="matrix(0.7842758,0.23523647,-0.23523647,0.7842758,493.43525,13.221661)"
       x="0"
       y="0"
       width="100%"
       height="100%" />
    <use
       id="use19671"
       inkscape:spray-origin="#path16834"
       xlink:href="#path16834"
       transform="matrix(1.2378736,-0.18642313,0.18642313,1.2378736,31.260578,283.63406)"
       x="0"
       y="0"
       width="100%"
       height="100%" />
    <use
       id="use19673"
       inkscape:spray-origin="#path16834"
       xlink:href="#path16834"
       transform="matrix(0.65302898,0.00549196,-0.00549196,0.65302898,353.89084,165.87419)"
       x="0"
       y="0"
       width="100%"
       height="100%" />
    <use
       id="use19675"
       inkscape:spray-origin="#path16834"
       xlink:href="#path16834"
       transform="matrix(1.1190728,-0.28266058,0.28266058,1.1190728,-314.53944,333.76313)"
       x="0"
       y="0"
       width="100%"
       height="100%" />
    <use
       id="use19677"
       inkscape:spray-origin="#path16834"
       xlink:href="#path16834"
       transform="matrix(1.3118602,-0.10533185,0.10533185,1.3118602,-364.40042,254.42839)"
       x="0"
       y="0"
       width="100%"
       height="100%" />
    <use
       id="use19679"
       inkscape:spray-origin="#path16834"
       xlink:href="#path16834"
       transform="matrix(0.71152408,-0.00873343,0.00873343,0.71152408,-239.72499,317.01697)"
       x="0"
       y="0"
       width="100%"
       height="100%" />
    <use
       id="use19681"
       inkscape:spray-origin="#path16834"
       xlink:href="#path16834"
       transform="matrix(0.53499662,-0.06193557,0.06193557,0.53499662,-310.47003,285.50596)"
       x="0"
       y="0"
       width="100%"
       height="100%" />
    <use
       id="use19683"
       inkscape:spray-origin="#path16834"
       xlink:href="#path16834"
       transform="matrix(1.1061175,0.08260518,-0.08260518,1.1061175,-582.46089,-76.032731)"
       x="0"
       y="0"
       width="100%"
       height="100%" />
    <use
       id="use19685"
       inkscape:spray-origin="#path16834"
       xlink:href="#path16834"
       transform="matrix(0.5107183,-0.10575705,0.10575705,0.5107183,121.61404,225.9858)"
       x="0"
       y="0"
       width="100%"
       height="100%" />
    <use
       id="use19687"
       inkscape:spray-origin="#path16834"
       xlink:href="#path16834"
       transform="matrix(0.86206879,0.20959918,-0.20959918,0.86206879,262.27107,98.256836)"
       x="0"
       y="0"
       width="100%"
       height="100%" />
    <use
       id="use19689"
       inkscape:spray-origin="#path16834"
       xlink:href="#path16834"
       transform="matrix(1.3119388,-0.32432829,0.32432829,1.3119388,-100.39516,325.93546)"
       x="0"
       y="0"
       width="100%"
       height="100%" />
    <use
       id="use19691"
       inkscape:spray-origin="#path16834"
       xlink:href="#path16834"
       transform="matrix(1.1192863,-0.06927933,0.06927933,1.1192863,475.89919,111.58019)"
       x="0"
       y="0"
       width="100%"
       height="100%" />
    <use
       id="use19693"
       inkscape:spray-origin="#path16834"
       xlink:href="#path16834"
       transform="matrix(0.70856008,0.13268217,-0.13268217,0.70856008,1031.1913,-33.895705)"
       x="0"
       y="0"
       width="100%"
       height="100%" />
    <use
       id="use19695"
       inkscape:spray-origin="#path16834"
       xlink:href="#path16834"
       transform="matrix(0.84025279,-0.14966032,0.14966032,0.84025279,1227.5366,126.6358)"
       x="0"
       y="0"
       width="100%"
       height="100%" />
    <use
       id="use19697"
       inkscape:spray-origin="#path16834"
       xlink:href="#path16834"
       transform="matrix(1.478863,-0.12935489,0.12935489,1.478863,1038.3323,267.31855)"
       x="0"
       y="0"
       width="100%"
       height="100%" />
    <use
       id="use19699"
       inkscape:spray-origin="#path16834"
       xlink:href="#path16834"
       transform="matrix(0.5256588,0.09212451,-0.09212451,0.5256588,1378.1446,351.78013)"
       x="0"
       y="0"
       width="100%"
       height="100%" />
    <use
       id="use19701"
       inkscape:spray-origin="#path16834"
       xlink:href="#path16834"
       transform="matrix(1.2984462,0.28904706,-0.28904706,1.2984462,1001.4909,199.31508)"
       x="0"
       y="0"
       width="100%"
       height="100%" />
    <use
       id="use19703"
       inkscape:spray-origin="#path16834"
       xlink:href="#path16834"
       transform="matrix(1.0873858,0.15069468,-0.15069468,1.0873858,785.05003,148.53072)"
       x="0"
       y="0"
       width="100%"
       height="100%" />
    <use
       id="use19705"
       inkscape:spray-origin="#path16834"
       xlink:href="#path16834"
       transform="matrix(1.2237725,-0.14538208,0.14538208,1.2237725,732.93996,262.41663)"
       x="0"
       y="0"
       width="100%"
       height="100%" />
    <use
       id="use19707"
       inkscape:spray-origin="#path16834"
       xlink:href="#path16834"
       transform="matrix(0.58698223,-0.09076282,0.09076282,0.58698223,1258.8098,196.36664)"
       x="0"
       y="0"
       width="100%"
       height="100%" />
    <use
       id="use19709"
       inkscape:spray-origin="#path16834"
       xlink:href="#path16834"
       transform="matrix(0.5680071,0.11445685,-0.11445685,0.5680071,1226.4163,105.98651)"
       x="0"
       y="0"
       width="100%"
       height="100%" />
    <use
       id="use19711"
       inkscape:spray-origin="#path16834"
       xlink:href="#path16834"
       transform="matrix(1.0854695,-0.19078553,0.19078553,1.0854695,1189.7592,105.71082)"
       x="0"
       y="0"
       width="100%"
       height="100%" />
    <use
       id="use19713"
       inkscape:spray-origin="#path16834"
       xlink:href="#path16834"
       transform="matrix(1.2658779,0.40210044,-0.40210044,1.2658779,959.20477,-277.67653)"
       x="0"
       y="0"
       width="100%"
       height="100%" />
    <use
       id="use19715"
       inkscape:spray-origin="#path16834"
       xlink:href="#path16834"
       transform="matrix(1.17312,0.29374344,-0.29374344,1.17312,558.31226,-345.88831)"
       x="0"
       y="0"
       width="100%"
       height="100%" />
    <use
       id="use19717"
       inkscape:spray-origin="#path16834"
       xlink:href="#path16834"
       transform="matrix(1.053868,-0.01273817,0.01273817,1.053868,406.24619,-103.8282)"
       x="0"
       y="0"
       width="100%"
       height="100%" />
    <use
       id="use19719"
       inkscape:spray-origin="#path16834"
       xlink:href="#path16834"
       transform="matrix(1.1302154,0.27224155,-0.27224155,1.1302154,321.01826,-76.70616)"
       x="0"
       y="0"
       width="100%"
       height="100%" />
    <use
       id="use19721"
       inkscape:spray-origin="#path16834"
       xlink:href="#path16834"
       transform="matrix(0.97713535,-0.0126209,0.0126209,0.97713535,290.75606,7.8275662)"
       x="0"
       y="0"
       width="100%"
       height="100%" />
    <use
       id="use19723"
       inkscape:spray-origin="#path16834"
       xlink:href="#path16834"
       transform="matrix(1.3750936,-0.36257632,0.36257632,1.3750936,-318.95743,243.67922)"
       x="0"
       y="0"
       width="100%"
       height="100%" />
    <use
       id="use19725"
       inkscape:spray-origin="#path16834"
       xlink:href="#path16834"
       transform="matrix(1.2826018,0.13380157,-0.13380157,1.2826018,-134.77719,15.035913)"
       x="0"
       y="0"
       width="100%"
       height="100%" />
    <use
       id="use19727"
       inkscape:spray-origin="#path16834"
       xlink:href="#path16834"
       transform="matrix(1.4225212,0.35428559,-0.35428559,1.4225212,-187.46957,-30.401468)"
       x="0"
       y="0"
       width="100%"
       height="100%" />
    <use
       id="use19729"
       inkscape:spray-origin="#path16834"
       xlink:href="#path16834"
       transform="matrix(0.72166263,-0.20863219,0.20863219,0.72166263,195.11663,557.25316)"
       x="0"
       y="0"
       width="100%"
       height="100%" />
    <use
       id="use19731"
       inkscape:spray-origin="#path16834"
       xlink:href="#path16834"
       transform="matrix(0.83778263,0.13122709,-0.13122709,0.83778263,-156.15055,334.31543)"
       x="0"
       y="0"
       width="100%"
       height="100%" />
    <use
       id="use19733"
       inkscape:spray-origin="#path16834"
       xlink:href="#path16834"
       transform="matrix(0.91439492,-0.03537887,0.03537887,0.91439492,-371.59079,587.3322)"
       x="0"
       y="0"
       width="100%"
       height="100%" />
    <use
       id="use19735"
       inkscape:spray-origin="#path16834"
       xlink:href="#path16834"
       transform="matrix(0.95179619,0.04985899,-0.04985899,0.95179619,-397.67715,494.74722)"
       x="0"
       y="0"
       width="100%"
       height="100%" />
    <use
       id="use19737"
       inkscape:spray-origin="#path16834"
       xlink:href="#path16834"
       transform="matrix(1.0352661,-0.18065166,0.18065166,1.0352661,-583.99516,426.0699)"
       x="0"
       y="0"
       width="100%"
       height="100%" />
    <ellipse
       style="fill:#ffffff;fill-opacity:0.16208069;stroke:none;stroke-width:0.579816"
       id="ellipse4644"
       cx="280.46579"
       cy="156.05118"
       rx="168.95413"
       ry="157.64203" />
  </g>
  <g
     inkscape:groupmode="layer"
     id="layer3"
     inkscape:label="Atrás">
    <path
       style="fill:#071023;fill-opacity:1;stroke:none;stroke-width:1px;stroke-linecap:butt;stroke-linejoin:miter;stroke-opacity:1"
       d="m -237.10338,628.93151 c 0,0 293.972371,-61.5955 442.70013,-57.19045 96.11679,2.84681 180.97661,93.46199 249.9254,89.25343 76.14073,-4.64755 258.3856,-162.67787 392.03842,-152.19012 129.7047,10.17794 375.36753,0.40855 507.94583,61.058 112.3502,51.39589 335.9894,-21.44013 393.14,-43.40518 78.3506,-30.11296 219.5777,-51.67311 360.8643,-32.76134 31.3516,4.19653 244.7269,287.15732 244.7269,287.15732 l 71.6061,673.42483 -682.9238,154.3474 -667.851,0.051 -869.73328,-98.6169 -669.06593,-95.2667 c 0,0 -542.99249,-269.4354 -493.74037,-273.3675 49.25214,-3.9322 438.37458,-300.80888 438.37458,-300.80888 z"
       id="path258"
       sodipodi:nodetypes="cssssssccccccscc" />
    <g
       id="g70829"
       transform="matrix(0.48656012,0,0,0.47155766,483.42518,205.54139)"
       style="display:inline;fill:#270f00;fill-opacity:1">
      <rect
         style="opacity:1;fill:#270f00;fill-opacity:1;stroke:none;stroke-width:0.942179"
         id="rect70821"
         width="52.508011"
         height="338.79025"
         x="106.48255"
         y="615.03784"
         ry="23.836504"
         rx="26.254005" />
      <path
         id="path70823"
         style="opacity:1;fill:#270f00;fill-opacity:1;stroke-width:0.546037"
         d="m 70.159245,655.53129 c -5.843648,0 -10.268781,5.04895 -10.548101,11.30654 l -1.945968,43.59538 c -0.140025,3.13698 3.128067,7.60318 5.043439,9.64807 1.8859,2.08014 8.114031,3.27922 11.046197,3.31548 l 38.592708,0.62525 c 5.84326,0.0722 10.60226,-4.91174 10.66965,-11.17515 0.0674,-6.26341 -4.58329,-11.3646 -10.42655,-11.43684 0,0 -28.682013,6.82666 -32.278241,-0.12505 -2.756107,-5.32771 -0.68427,-33.60069 -0.68427,-33.60069 0,-6.26382 -3.625217,-12.15299 -9.468864,-12.15299 z"
         sodipodi:nodetypes="ssscccsssss" />
      <path
         id="path70825"
         style="opacity:1;fill:#270f00;fill-opacity:1;stroke-width:0.697471"
         d="m 215.9496,645.91267 c -7.28771,0 -17.10231,6.43513 -17.10231,14.62999 0,0 -0.70932,78.64926 -6.70178,84.58246 -5.99247,5.93321 -67.88914,0.27684 -67.88914,0.27684 -7.2877,0 -13.1547,6.59731 -13.1547,14.79217 0,8.19486 5.87206,14.52054 13.1547,14.79216 l 88.22782,3.29061 c 7.28265,0.27162 13.72115,-9.88791 13.72115,-18.08277 v -99.8471 c 0,-8.19486 -2.96803,-14.43436 -10.25574,-14.43436 z"
         sodipodi:nodetypes="sszsssssss" />
      <path
         id="path70827"
         style="opacity:1;fill:#270f00;fill-opacity:1;stroke-width:0.559681"
         d="m 26.568618,698.14717 c -6.201266,0 -11.19362,4.99236 -11.19362,11.19362 l -0.956686,83.87287 0.693401,9.90112 c 0.43323,6.18611 5.255639,6.9686 11.456905,6.9686 l 15.171112,0.24533 74.37785,-0.24533 c 6.20124,-0.0204 11.19362,-4.99235 11.19362,-11.19362 v -5.59681 c 0,-6.20127 -4.99235,-11.19362 -11.19362,-11.19362 0,0 -61.588581,7.50645 -72.758531,0 -10.987742,-7.384 0,-72.75854 0,-72.75854 0,-6.20126 -4.992355,-11.19362 -11.193621,-11.19362 z"
         sodipodi:nodetypes="sscsscssssssss" />
    </g>
    <g
       id="g76636"
       transform="matrix(0.43728521,0,0,0.48314173,1467.4237,147.07925)"
       style="display:inline;fill:#270f00;fill-opacity:1">
      <rect
         style="opacity:1;fill:#270f00;fill-opacity:1;stroke:none;stroke-width:0.942179"
         id="rect76628"
         width="52.508011"
         height="338.79025"
         x="106.48255"
         y="615.03784"
         ry="23.836504"
         rx="26.254005" />
      <path
         id="path76630"
         style="opacity:1;fill:#270f00;fill-opacity:1;stroke-width:0.546037"
         d="m 70.159245,655.53129 c -5.843648,0 -10.268781,5.04895 -10.548101,11.30654 l -1.945968,43.59538 c -0.140025,3.13698 3.128067,7.60318 5.043439,9.64807 1.8859,2.08014 8.114031,3.27922 11.046197,3.31548 l 38.592708,0.62525 c 5.84326,0.0722 10.60226,-4.91174 10.66965,-11.17515 0.0674,-6.26341 -4.58329,-11.3646 -10.42655,-11.43684 0,0 -28.682013,6.82666 -32.278241,-0.12505 -2.756107,-5.32771 -0.68427,-33.60069 -0.68427,-33.60069 0,-6.26382 -3.625217,-12.15299 -9.468864,-12.15299 z"
         sodipodi:nodetypes="ssscccsssss" />
      <path
         id="path76632"
         style="opacity:1;fill:#270f00;fill-opacity:1;stroke-width:0.697471"
         d="m 215.9496,645.91267 c -7.28771,0 -17.10231,6.43513 -17.10231,14.62999 0,0 -0.70932,78.64926 -6.70178,84.58246 -5.99247,5.93321 -67.88914,0.27684 -67.88914,0.27684 -7.2877,0 -13.1547,6.59731 -13.1547,14.79217 0,8.19486 5.87206,14.52054 13.1547,14.79216 l 88.22782,3.29061 c 7.28265,0.27162 13.72115,-9.88791 13.72115,-18.08277 v -99.8471 c 0,-8.19486 -2.96803,-14.43436 -10.25574,-14.43436 z"
         sodipodi:nodetypes="sszsssssss" />
      <path
         id="path76634"
         style="opacity:1;fill:#270f00;fill-opacity:1;stroke-width:0.559681"
         d="m 26.568618,698.14717 c -6.201266,0 -11.19362,4.99236 -11.19362,11.19362 l -0.956686,83.87287 0.693401,9.90112 c 0.43323,6.18611 5.255639,6.9686 11.456905,6.9686 l 15.171112,0.24533 74.37785,-0.24533 c 6.20124,-0.0204 11.19362,-4.99235 11.19362,-11.19362 v -5.59681 c 0,-6.20127 -4.99235,-11.19362 -11.19362,-11.19362 0,0 -61.588581,7.50645 -72.758531,0 -10.987742,-7.384 0,-72.75854 0,-72.75854 0,-6.20126 -4.992355,-11.19362 -11.193621,-11.19362 z"
         sodipodi:nodetypes="sscsscssssssss" />
    </g>
  </g>
  <g
     inkscape:groupmode="layer"
     id="layer2"
     inkscape:label="Meio">
    <path
       style="fill:#00102f;fill-opacity:1;stroke:none;stroke-width:1px;stroke-linecap:butt;stroke-linejoin:miter;stroke-opacity:1"
       d="m -265.12634,737.58038 c 0,0 333.302444,-80.57254 421.29136,-48.7355 86.71093,31.37463 244.26092,101.46505 368.78168,84.94815 124.52076,-16.51691 291.74572,-171.7804 454.31398,-174.49508 156.82002,-2.61869 306.84412,158.9806 473.45642,160.28467 156.55,1.22531 232.131,-164.33101 447.1656,-143.62264 45.9617,4.42623 326.0343,171.48994 326.0343,171.48994 L 2264.1781,1395.51 1525.5022,1518.5576 661.154,1414.9029 -43.460998,1390.6744 -701.15064,1259.0465 Z"
       id="path222"
       sodipodi:nodetypes="csssasccccccc" />
    <g
       id="g53548"
       transform="matrix(0.43079986,0,0,0.4175167,1724.8971,242.80855)"
       style="display:inline;fill:#270f00;fill-opacity:1">
      <rect
         style="opacity:1;fill:#270f00;fill-opacity:1;stroke:none;stroke-width:0.942179"
         id="rect53540"
         width="52.508011"
         height="338.79025"
         x="106.48255"
         y="615.03784"
         ry="23.836504"
         rx="26.254005" />
      <path
         id="path53542"
         style="opacity:1;fill:#270f00;fill-opacity:1;stroke-width:0.546037"
         d="m 70.159245,655.53129 c -5.843648,0 -10.268781,5.04895 -10.548101,11.30654 l -1.945968,43.59538 c -0.140025,3.13698 3.128067,7.60318 5.043439,9.64807 1.8859,2.08014 8.114031,3.27922 11.046197,3.31548 l 38.592708,0.62525 c 5.84326,0.0722 10.60226,-4.91174 10.66965,-11.17515 0.0674,-6.26341 -4.58329,-11.3646 -10.42655,-11.43684 0,0 -28.682013,6.82666 -32.278241,-0.12505 -2.756107,-5.32771 -0.68427,-33.60069 -0.68427,-33.60069 0,-6.26382 -3.625217,-12.15299 -9.468864,-12.15299 z"
         sodipodi:nodetypes="ssscccsssss" />
      <path
         id="path53544"
         style="opacity:1;fill:#270f00;fill-opacity:1;stroke-width:0.697471"
         d="m 215.9496,645.91267 c -7.28771,0 -17.10231,6.43513 -17.10231,14.62999 0,0 -0.70932,78.64926 -6.70178,84.58246 -5.99247,5.93321 -67.88914,0.27684 -67.88914,0.27684 -7.2877,0 -13.1547,6.59731 -13.1547,14.79217 0,8.19486 5.87206,14.52054 13.1547,14.79216 l 88.22782,3.29061 c 7.28265,0.27162 13.72115,-9.88791 13.72115,-18.08277 v -99.8471 c 0,-8.19486 -2.96803,-14.43436 -10.25574,-14.43436 z"
         sodipodi:nodetypes="sszsssssss" />
      <path
         id="path53546"
         style="opacity:1;fill:#270f00;fill-opacity:1;stroke-width:0.559681"
         d="m 26.568618,698.14717 c -6.201266,0 -11.19362,4.99236 -11.19362,11.19362 l -0.956686,83.87287 0.693401,9.90112 c 0.43323,6.18611 5.255639,6.9686 11.456905,6.9686 l 15.171112,0.24533 74.37785,-0.24533 c 6.20124,-0.0204 11.19362,-4.99235 11.19362,-11.19362 v -5.59681 c 0,-6.20127 -4.99235,-11.19362 -11.19362,-11.19362 0,0 -61.588581,7.50645 -72.758531,0 -10.987742,-7.384 0,-72.75854 0,-72.75854 0,-6.20126 -4.992355,-11.19362 -11.193621,-11.19362 z"
         sodipodi:nodetypes="sscsscssssssss" />
    </g>
    <g
       id="g70279"
       transform="matrix(0.48656012,0,0,0.47155766,891.04671,174.90263)"
       style="display:inline;fill:#270f00;fill-opacity:1">
      <rect
         style="opacity:1;fill:#270f00;fill-opacity:1;stroke:none;stroke-width:0.942179"
         id="rect70271"
         width="52.508011"
         height="338.79025"
         x="106.48255"
         y="615.03784"
         ry="23.836504"
         rx="26.254005" />
      <path
         id="path70273"
         style="opacity:1;fill:#270f00;fill-opacity:1;stroke-width:0.546037"
         d="m 70.159245,655.53129 c -5.843648,0 -10.268781,5.04895 -10.548101,11.30654 l -1.945968,43.59538 c -0.140025,3.13698 3.128067,7.60318 5.043439,9.64807 1.8859,2.08014 8.114031,3.27922 11.046197,3.31548 l 38.592708,0.62525 c 5.84326,0.0722 10.60226,-4.91174 10.66965,-11.17515 0.0674,-6.26341 -4.58329,-11.3646 -10.42655,-11.43684 0,0 -28.682013,6.82666 -32.278241,-0.12505 -2.756107,-5.32771 -0.68427,-33.60069 -0.68427,-33.60069 0,-6.26382 -3.625217,-12.15299 -9.468864,-12.15299 z"
         sodipodi:nodetypes="ssscccsssss" />
      <path
         id="path70275"
         style="opacity:1;fill:#270f00;fill-opacity:1;stroke-width:0.697471"
         d="m 215.9496,645.91267 c -7.28771,0 -17.10231,6.43513 -17.10231,14.62999 0,0 -0.70932,78.64926 -6.70178,84.58246 -5.99247,5.93321 -67.88914,0.27684 -67.88914,0.27684 -7.2877,0 -13.1547,6.59731 -13.1547,14.79217 0,8.19486 5.87206,14.52054 13.1547,14.79216 l 88.22782,3.29061 c 7.28265,0.27162 13.72115,-9.88791 13.72115,-18.08277 v -99.8471 c 0,-8.19486 -2.96803,-14.43436 -10.25574,-14.43436 z"
         sodipodi:nodetypes="sszsssssss" />
      <path
         id="path70277"
         style="opacity:1;fill:#270f00;fill-opacity:1;stroke-width:0.559681"
         d="m 26.568618,698.14717 c -6.201266,0 -11.19362,4.99236 -11.19362,11.19362 l -0.956686,83.87287 0.693401,9.90112 c 0.43323,6.18611 5.255639,6.9686 11.456905,6.9686 l 15.171112,0.24533 74.37785,-0.24533 c 6.20124,-0.0204 11.19362,-4.99235 11.19362,-11.19362 v -5.59681 c 0,-6.20127 -4.99235,-11.19362 -11.19362,-11.19362 0,0 -61.588581,7.50645 -72.758531,0 -10.987742,-7.384 0,-72.75854 0,-72.75854 0,-6.20126 -4.992355,-11.19362 -11.193621,-11.19362 z"
         sodipodi:nodetypes="sscsscssssssss" />
    </g>
    <g
       id="g70289"
       transform="matrix(-0.36786948,0,0,0.36438567,1136.2772,294.74433)"
       style="display:inline;fill:#270f00;fill-opacity:1">
      <rect
         style="opacity:1;fill:#270f00;fill-opacity:1;stroke:none;stroke-width:0.942179"
         id="rect70281"
         width="52.508011"
         height="338.79025"
         x="106.48255"
         y="615.03784"
         ry="23.836504"
         rx="26.254005" />
      <path
         id="path70283"
         style="opacity:1;fill:#270f00;fill-opacity:1;stroke-width:0.546037"
         d="m 70.159245,655.53129 c -5.843648,0 -10.268781,5.04895 -10.548101,11.30654 l -1.945968,43.59538 c -0.140025,3.13698 3.128067,7.60318 5.043439,9.64807 1.8859,2.08014 8.114031,3.27922 11.046197,3.31548 l 38.592708,0.62525 c 5.84326,0.0722 10.60226,-4.91174 10.66965,-11.17515 0.0674,-6.26341 -4.58329,-11.3646 -10.42655,-11.43684 0,0 -28.682013,6.82666 -32.278241,-0.12505 -2.756107,-5.32771 -0.68427,-33.60069 -0.68427,-33.60069 0,-6.26382 -3.625217,-12.15299 -9.468864,-12.15299 z"
         sodipodi:nodetypes="ssscccsssss" />
      <path
         id="path70285"
         style="opacity:1;fill:#270f00;fill-opacity:1;stroke-width:0.697471"
         d="m 215.9496,645.91267 c -7.28771,0 -17.10231,6.43513 -17.10231,14.62999 0,0 -0.70932,78.64926 -6.70178,84.58246 -5.99247,5.93321 -67.88914,0.27684 -67.88914,0.27684 -7.2877,0 -13.1547,6.59731 -13.1547,14.79217 0,8.19486 5.87206,14.52054 13.1547,14.79216 l 88.22782,3.29061 c 7.28265,0.27162 13.72115,-9.88791 13.72115,-18.08277 v -99.8471 c 0,-8.19486 -2.96803,-14.43436 -10.25574,-14.43436 z"
         sodipodi:nodetypes="sszsssssss" />
      <path
         id="path70287"
         style="opacity:1;fill:#270f00;fill-opacity:1;stroke-width:0.559681"
         d="m 26.568618,698.14717 c -6.201266,0 -11.19362,4.99236 -11.19362,11.19362 l -0.956686,83.87287 0.693401,9.90112 c 0.43323,6.18611 5.255639,6.9686 11.456905,6.9686 l 15.171112,0.24533 74.37785,-0.24533 c 6.20124,-0.0204 11.19362,-4.99235 11.19362,-11.19362 v -5.59681 c 0,-6.20127 -4.99235,-11.19362 -11.19362,-11.19362 0,0 -61.588581,7.50645 -72.758531,0 -10.987742,-7.384 0,-72.75854 0,-72.75854 0,-6.20126 -4.992355,-11.19362 -11.193621,-11.19362 z"
         sodipodi:nodetypes="sscsscssssssss" />
    </g>
  </g>
  <g
     inkscape:label="Frente"
     inkscape:groupmode="layer"
     id="layer1"
     style="display:inline">
    <g
       id="g36"
       transform="matrix(1.8676588,0,0,3.0169385,453.67567,-966.50823)">
      <rect
         fill="#c45f2a"
         x="0"
         y="0"
         width="100"
         height="220"
         id="rect9" />
      <rect
         fill="#6699cc"
         x="100"
         y="0"
         width="100"
         height="220"
         id="rect11" />
      <rect
         fill="#fff275"
         x="200"
         y="0"
         width="100"
         height="220"
         id="rect13" />
      <rect
         fill="#ff8c42"
         x="300"
         y="0"
         width="100"
         height="220"
         id="rect15" />
      <rect
         fill="#ff3c33"
         x="400"
         y="0"
         width="100"
         height="220"
         id="rect17" />
      <text
         x="10"
         y="235"
         font-family="Arial"
         font-size="6px"
         alignment-baseline="middle"
         id="text19">Exported from Coolors.co</text>
      <text
         x="490"
         y="235"
         font-family="Arial"
         font-size="6px"
         alignment-baseline="middle"
         text-anchor="end"
         id="text21">https://coolors.co/c45f2a-6699cc-fff275-ff8c42-ff3c33</text>
    </g>
    <path
       style="fill:#041331;fill-opacity:1;stroke:none;stroke-width:1px;stroke-linecap:butt;stroke-linejoin:miter;stroke-opacity:1"
       d="m -182.97159,851.0626 c 0,0 247.620015,-57.32456 373.65545,-57.86739 182.30843,-0.7852 359.02457,86.3539 541.18814,79.04559 150.29005,-6.02956 289.4686,-97.15637 439.836,-100.77398 148.1882,-3.56518 290.0331,65.85026 437.7359,78.35381 161.7145,13.68969 342.8737,-59.28874 486.8622,-4.00107 143.9884,55.28767 -237.2102,442.76944 -237.2102,442.76944 L 478.56057,1359.7705 -567.14212,1250.7956 Z"
       id="path186"
       sodipodi:nodetypes="caaaascccc" />
    <g
       id="g53528"
       transform="translate(-2.3260741,-130.13662)"
       style="fill:#270f00;fill-opacity:1">
      <rect
         style="opacity:1;fill:#270f00;fill-opacity:1;stroke:none;stroke-width:0.942179"
         id="rect50897"
         width="52.508011"
         height="338.79025"
         x="106.48255"
         y="615.03784"
         ry="23.836504"
         rx="26.254005" />
      <path
         id="rect51473"
         style="opacity:1;fill:#270f00;fill-opacity:1;stroke-width:0.546037"
         d="m 70.159245,655.53129 c -5.843648,0 -10.268781,5.04895 -10.548101,11.30654 l -1.945968,43.59538 c -0.140025,3.13698 3.128067,7.60318 5.043439,9.64807 1.8859,2.08014 8.114031,3.27922 11.046197,3.31548 l 38.592708,0.62525 c 5.84326,0.0722 10.60226,-4.91174 10.66965,-11.17515 0.0674,-6.26341 -4.58329,-11.3646 -10.42655,-11.43684 0,0 -28.682013,6.82666 -32.278241,-0.12505 -2.756107,-5.32771 -0.68427,-33.60069 -0.68427,-33.60069 0,-6.26382 -3.625217,-12.15299 -9.468864,-12.15299 z"
         sodipodi:nodetypes="ssscccsssss" />
      <path
         id="rect52041"
         style="opacity:1;fill:#270f00;fill-opacity:1;stroke-width:0.697471"
         d="m 215.9496,645.91267 c -7.28771,0 -17.10231,6.43513 -17.10231,14.62999 0,0 -0.70932,78.64926 -6.70178,84.58246 -5.99247,5.93321 -67.88914,0.27684 -67.88914,0.27684 -7.2877,0 -13.1547,6.59731 -13.1547,14.79217 0,8.19486 5.87206,14.52054 13.1547,14.79216 l 88.22782,3.29061 c 7.28265,0.27162 13.72115,-9.88791 13.72115,-18.08277 v -99.8471 c 0,-8.19486 -2.96803,-14.43436 -10.25574,-14.43436 z"
         sodipodi:nodetypes="sszsssssss" />
      <path
         id="rect52864"
         style="opacity:1;fill:#270f00;fill-opacity:1;stroke-width:0.559681"
         d="m 26.568618,698.14717 c -6.201266,0 -11.19362,4.99236 -11.19362,11.19362 l -0.956686,83.87287 0.693401,9.90112 c 0.43323,6.18611 5.255639,6.9686 11.456905,6.9686 l 15.171112,0.24533 74.37785,-0.24533 c 6.20124,-0.0204 11.19362,-4.99235 11.19362,-11.19362 v -5.59681 c 0,-6.20127 -4.99235,-11.19362 -11.19362,-11.19362 0,0 -61.588581,7.50645 -72.758531,0 -10.987742,-7.384 0,-72.75854 0,-72.75854 0,-6.20126 -4.992355,-11.19362 -11.193621,-11.19362 z"
         sodipodi:nodetypes="sscsscssssssss" />
    </g>
    <g
       id="g53538"
       transform="matrix(0.76865614,0,0,0.74495563,1148.9291,117.23427)"
       style="fill:#270f00;fill-opacity:1">
      <rect
         style="opacity:1;fill:#270f00;fill-opacity:1;stroke:none;stroke-width:0.942179"
         id="rect53530"
         width="52.508011"
         height="338.79025"
         x="106.48255"
         y="615.03784"
         ry="23.836504"
         rx="26.254005" />
      <path
         id="path53532"
         style="opacity:1;fill:#270f00;fill-opacity:1;stroke-width:0.546037"
         d="m 70.159245,655.53129 c -5.843648,0 -10.268781,5.04895 -10.548101,11.30654 l -1.945968,43.59538 c -0.140025,3.13698 3.128067,7.60318 5.043439,9.64807 1.8859,2.08014 8.114031,3.27922 11.046197,3.31548 l 38.592708,0.62525 c 5.84326,0.0722 10.60226,-4.91174 10.66965,-11.17515 0.0674,-6.26341 -4.58329,-11.3646 -10.42655,-11.43684 0,0 -28.682013,6.82666 -32.278241,-0.12505 -2.756107,-5.32771 -0.68427,-33.60069 -0.68427,-33.60069 0,-6.26382 -3.625217,-12.15299 -9.468864,-12.15299 z"
         sodipodi:nodetypes="ssscccsssss" />
      <path
         id="path53534"
         style="opacity:1;fill:#270f00;fill-opacity:1;stroke-width:0.697471"
         d="m 215.9496,645.91267 c -7.28771,0 -17.10231,6.43513 -17.10231,14.62999 0,0 -0.70932,78.64926 -6.70178,84.58246 -5.99247,5.93321 -67.88914,0.27684 -67.88914,0.27684 -7.2877,0 -13.1547,6.59731 -13.1547,14.79217 0,8.19486 5.87206,14.52054 13.1547,14.79216 l 88.22782,3.29061 c 7.28265,0.27162 13.72115,-9.88791 13.72115,-18.08277 v -99.8471 c 0,-8.19486 -2.96803,-14.43436 -10.25574,-14.43436 z"
         sodipodi:nodetypes="sszsssssss" />
      <path
         id="path53536"
         style="opacity:1;fill:#270f00;fill-opacity:1;stroke-width:0.559681"
         d="m 26.568618,698.14717 c -6.201266,0 -11.19362,4.99236 -11.19362,11.19362 l -0.956686,83.87287 0.693401,9.90112 c 0.43323,6.18611 5.255639,6.9686 11.456905,6.9686 l 15.171112,0.24533 74.37785,-0.24533 c 6.20124,-0.0204 11.19362,-4.99235 11.19362,-11.19362 v -5.59681 c 0,-6.20127 -4.99235,-11.19362 -11.19362,-11.19362 0,0 -61.588581,7.50645 -72.758531,0 -10.987742,-7.384 0,-72.75854 0,-72.75854 0,-6.20126 -4.992355,-11.19362 -11.193621,-11.19362 z"
         sodipodi:nodetypes="sscsscssssssss" />
    </g>
  </g>
</svg>
